<svg width="574" height="591" viewBox="0 0 574 591" fill="none" xmlns="http://www.w3.org/2000/svg">
<circle cx="532.591" cy="20.6257" r="20.3448" transform="rotate(90 532.591 20.6257)" fill="#7D3E8E"/>
<circle cx="532.591" cy="102.005" r="26.1576" transform="rotate(90 532.591 102.005)" fill="#038DBE"/>
<circle cx="532.591" cy="192.104" r="34.8768" transform="rotate(90 532.591 192.104)" fill="#F36211"/>
<circle cx="534.044" cy="309.813" r="39.2365" transform="rotate(90 534.044 309.813)" fill="#F9C927"/>
<circle cx="39.2365" cy="39.2365" r="39.2365" transform="matrix(-4.37114e-08 1 1 4.37114e-08 0.719116 270.576)" fill="#F9C927"/>
<circle cx="449.759" cy="394.099" r="39.2365" transform="rotate(90 449.759 394.099)" fill="#F9C927"/>
<circle cx="39.2365" cy="39.2365" r="39.2365" transform="matrix(-4.37114e-08 1 1 4.37114e-08 85.0049 354.862)" fill="#F9C927"/>
<circle cx="365.473" cy="472.572" r="39.2365" transform="rotate(90 365.473 472.572)" fill="#F9C927"/>
<circle cx="39.2365" cy="39.2365" r="39.2365" transform="matrix(-4.37114e-08 1 1 4.37114e-08 169.291 433.335)" fill="#F9C927"/>
<circle cx="287" cy="551.044" r="39.2365" transform="rotate(90 287 551.044)" fill="#F9C927"/>
<circle cx="34.8768" cy="34.8768" r="34.8768" transform="matrix(-4.37114e-08 1 1 4.37114e-08 9.43835 157.227)" fill="#F36211"/>
<circle cx="451.212" cy="276.389" r="34.8768" transform="rotate(90 451.212 276.389)" fill="#F36211"/>
<circle cx="34.8768" cy="34.8768" r="34.8768" transform="matrix(-4.37114e-08 1 1 4.37114e-08 90.8177 241.512)" fill="#F36211"/>
<circle cx="369.833" cy="357.769" r="34.8768" transform="rotate(90 369.833 357.769)" fill="#F36211"/>
<circle cx="34.8768" cy="34.8768" r="34.8768" transform="matrix(-4.37114e-08 1 1 4.37114e-08 172.197 322.892)" fill="#F36211"/>
<circle cx="288.453" cy="433.335" r="34.8768" transform="rotate(90 288.453 433.335)" fill="#F36211"/>
<circle cx="26.1576" cy="26.1576" r="26.1576" transform="matrix(-4.37114e-08 1 1 4.37114e-08 15.2512 75.8473)" fill="#038DBE"/>
<circle cx="451.212" cy="186.291" r="26.1576" transform="rotate(90 451.212 186.291)" fill="#038DBE"/>
<circle cx="26.1576" cy="26.1576" r="26.1576" transform="matrix(-4.37114e-08 1 1 4.37114e-08 96.6306 160.133)" fill="#038DBE"/>
<circle cx="369.833" cy="264.764" r="26.1576" transform="rotate(90 369.833 264.764)" fill="#038DBE"/>
<circle cx="26.1576" cy="26.1576" r="26.1576" transform="matrix(-4.37114e-08 1 1 4.37114e-08 178.01 238.606)" fill="#038DBE"/>
<circle cx="288.453" cy="343.237" r="26.1576" transform="rotate(90 288.453 343.237)" fill="#038DBE"/>
<circle cx="20.3448" cy="20.3448" r="20.3448" transform="matrix(-4.37114e-08 1 1 4.37114e-08 23.9705 0.280884)" fill="#7D3E8E"/>
<circle cx="451.212" cy="104.911" r="20.3448" transform="rotate(90 451.212 104.911)" fill="#7D3E8E"/>
<circle cx="20.3448" cy="20.3448" r="20.3448" transform="matrix(-4.37114e-08 1 1 4.37114e-08 105.35 84.5665)" fill="#7D3E8E"/>
<circle cx="369.833" cy="186.291" r="20.3448" transform="rotate(90 369.833 186.291)" fill="#7D3E8E"/>
<circle cx="20.3448" cy="20.3448" r="20.3448" transform="matrix(-4.37114e-08 1 1 4.37114e-08 186.729 165.946)" fill="#7D3E8E"/>
<circle cx="288.453" cy="264.764" r="20.3448" transform="rotate(90 288.453 264.764)" fill="#7D3E8E"/>
</svg>
